<mxfile host="app.diagrams.net" modified="2024-05-14T14:58:28.244Z" agent="Mozilla/5.0 (Windows NT 10.0; Win64; x64) AppleWebKit/537.36 (KHTML, like Gecko) Chrome/124.0.0.0 Safari/537.36" etag="lPpXbhWL13N6nDUnzsr0" version="24.4.0" type="github">
  <diagram name="Page-1" id="kNTP3jYRWkqtER2xIZ07">
    <mxGraphModel dx="3119" dy="2374" grid="1" gridSize="10" guides="1" tooltips="1" connect="1" arrows="1" fold="1" page="1" pageScale="1" pageWidth="850" pageHeight="1100" math="0" shadow="0">
      <root>
        <mxCell id="0" />
        <mxCell id="1" parent="0" />
        <mxCell id="h3KocaG9Eku_5aXktTpO-1" value="" style="shape=image;verticalLabelPosition=bottom;labelBackgroundColor=default;verticalAlign=top;aspect=fixed;imageAspect=0;image=data:image/svg+xml,PHN2ZyB4bWxucz0iaHR0cDovL3d3dy53My5vcmcvMjAwMC9zdmciIHByZXNlcnZlQXNwZWN0UmF0aW89InhNaW5ZTWluIG1lZXQiIHZpZXdCb3g9IjAgMCAyNTYgMjg4IiBoZWlnaHQ9IjI1MDAiIHdpZHRoPSIyMjIyIj48cGF0aCBmaWxsPSIjNUM4REJDIiBkPSJNMjU1LjU2OSA4NC43MmMtLjAwMi00LjgzLTEuMDM1LTkuMDk4LTMuMTI0LTEyLjc2MS0yLjA1Mi0zLjYwMi01LjEyNS02LjYyMS05LjI0Ny05LjAwOC0zNC4wMjUtMTkuNjE5LTY4LjA4My0zOS4xNzgtMTAyLjA5Ny01OC44MTctOS4xNy01LjI5NC0xOC4wNjEtNS4xMDEtMjcuMTYzLjI2OUMxMDAuMzk1IDEyLjM5IDMyLjU5IDUxLjIzNyAxMi4zODUgNjIuOTQgNC4wNjQgNjcuNzU3LjAxNSA3NS4xMjkuMDEzIDg0LjcxMSAwIDEyNC4xNjYuMDEzIDE2My42MiAwIDIwMy4wNzZjLjAwMiA0LjcyNC45OTEgOC45MDkgMi45ODggMTIuNTE3IDIuMDUzIDMuNzExIDUuMTY5IDYuODEzIDkuMzg2IDkuMjU0IDIwLjIwNiAxMS43MDMgODguMDIgNTAuNTQ3IDEwMS41NiA1OC41MzYgOS4xMDYgNS4zNzMgMTcuOTk3IDUuNTY1IDI3LjE3LjI2OSAzNC4wMTUtMTkuNjQgNjguMDc1LTM5LjE5OCAxMDIuMTA1LTU4LjgxNyA0LjIxNy0yLjQ0IDcuMzMzLTUuNTQ0IDkuMzg2LTkuMjUyIDEuOTk0LTMuNjA4IDIuOTg1LTcuNzkzIDIuOTg3LTEyLjUxOCAwIDAgMC03OC44ODktLjAxMy0xMTguMzQ1Ii8+PHBhdGggZmlsbD0iIzFBNDY3NCIgZD0iTTEyOC4xODIgMTQzLjUwOUwyLjk4OCAyMTUuNTkzYzIuMDUzIDMuNzExIDUuMTY5IDYuODEzIDkuMzg2IDkuMjU0IDIwLjIwNiAxMS43MDMgODguMDIgNTAuNTQ3IDEwMS41NiA1OC41MzYgOS4xMDYgNS4zNzMgMTcuOTk3IDUuNTY1IDI3LjE3LjI2OSAzNC4wMTUtMTkuNjQgNjguMDc1LTM5LjE5OCAxMDIuMTA1LTU4LjgxNyA0LjIxNy0yLjQ0IDcuMzMzLTUuNTQ0IDkuMzg2LTkuMjUybC0xMjQuNDEzLTcyLjA3NCIvPjxwYXRoIGZpbGw9IiMxQTQ2NzQiIGQ9Ik05MS4xMDEgMTY0Ljg2MWM3LjI4NSAxMi43MTggMjAuOTggMjEuMjk2IDM2LjY5IDIxLjI5NiAxNS44MDcgMCAyOS41OC04LjY4NyAzNi44MjgtMjEuNTQxbC0zNi40MzctMjEuMTA3LTM3LjA4MSAyMS4zNTIiLz48cGF0aCBmaWxsPSIjMUI1OThFIiBkPSJNMjU1LjU2OSA4NC43MmMtLjAwMi00LjgzLTEuMDM1LTkuMDk4LTMuMTI0LTEyLjc2MWwtMTI0LjI2MyA3MS41NSAxMjQuNDEzIDcyLjA3NGMxLjk5NC0zLjYwOCAyLjk4NS03Ljc5MyAyLjk4Ny0xMi41MTggMCAwIDAtNzguODg5LS4wMTMtMTE4LjM0NSIvPjxwYXRoIGZpbGw9IiNGRkYiIGQ9Ik0yNDguNzI4IDE0OC42NjFoLTkuNzIydjkuNzI0aC05LjcyNHYtOS43MjRoLTkuNzIxdi05LjcyMWg5LjcyMXYtOS43MjJoOS43MjR2OS43MjJoOS43MjJ2OS43MjFNMjEzLjI1MyAxNDguNjYxaC05LjcyMXY5LjcyNGgtOS43MjJ2LTkuNzI0aC05LjcyMnYtOS43MjFoOS43MjJ2LTkuNzIyaDkuNzIydjkuNzIyaDkuNzIxdjkuNzIxIi8+PHBhdGggZmlsbD0iI0ZGRiIgZD0iTTE2NC42MTkgMTY0LjYxNmMtNy4yNDggMTIuODU0LTIxLjAyMSAyMS41NDEtMzYuODI4IDIxLjU0MS0xNS43MSAwLTI5LjQwNS04LjU3OC0zNi42OS0yMS4yOTZhNDIuMDYyIDQyLjA2MiAwIDAgMS01LjU3NC0yMC45NjhjMC0yMy4zNDEgMTguOTIzLTQyLjI2MyA0Mi4yNjQtNDIuMjYzIDE1LjYwOSAwIDI5LjIzMiA4LjQ3MSAzNi41NTMgMjEuMDU5bDM2Ljk0MS0yMS4yNzJjLTE0LjY4My0yNS4zNDYtNDIuMDk2LTQyLjM5OC03My40OTQtNDIuMzk4LTQ2Ljg3NiAwLTg0Ljg3NSAzOC04NC44NzUgODQuODc0IDAgMTUuMzc4IDQuMDkxIDI5Ljc5OSAxMS4yNDEgNDIuMjM4IDE0LjY0NiAyNS40OCA0Mi4xMzcgNDIuNjM3IDczLjYzNCA0Mi42MzcgMzEuNTU1IDAgNTkuMDg5LTE3LjIyNiA3My43MTQtNDIuNzgxbC0zNi44ODYtMjEuMzcxIi8+PC9zdmc+;" vertex="1" parent="1">
          <mxGeometry x="-830" y="-10" width="115.59" height="130" as="geometry" />
        </mxCell>
      </root>
    </mxGraphModel>
  </diagram>
</mxfile>
